<svg xmlns="http://www.w3.org/2000/svg" width="36" height="13.824" viewBox="0 0 36 13.824">
  <path id="Icon_simple-aboutme" data-name="Icon simple-aboutme" d="M29.3,13.716a3.44,3.44,0,0,0-3.443,3.173h6.912A3.409,3.409,0,0,0,29.3,13.716m-3.389,5.422a3.68,3.68,0,0,0,3.8,2.954,5.322,5.322,0,0,0,3.578-1.357L35.05,22.77a7.854,7.854,0,0,1-5.609,2.142A6.789,6.789,0,0,1,22.392,18a6.757,6.757,0,0,1,6.858-6.912A6.673,6.673,0,0,1,36,18v1.139H25.916Zm-9.733,5.742V16.346c0-1.462-.648-2.3-2-2.3A3.5,3.5,0,0,0,11.6,15.536v9.347H8.078V16.346c0-1.462-.621-2.3-1.976-2.3a3.452,3.452,0,0,0-2.576,1.494v9.347H0V11.259H3.526v1.726A5.332,5.332,0,0,1,7.592,11.09,3.552,3.552,0,0,1,11.3,13.475a5.31,5.31,0,0,1,4.365-2.385c2.549,0,4.039,1.519,4.039,4.446v9.347h-3.53Z" transform="translate(0 -11.088)"/>
</svg>
