<svg xmlns="http://www.w3.org/2000/svg" width="566.5" height="608" viewBox="0 0 566.5 608">
  <g id="Path_3" data-name="Path 3" transform="translate(40 0)" fill="#fff">
    <path d="M 136.8983917236328 607.5000610351563 C 125.2141342163086 607.5000610351563 114.0001373291016 607.0249633789063 103.5679702758789 606.0880126953125 C 92.67013549804688 605.1093139648438 82.32272338867188 603.5991821289063 72.81321716308594 601.5999755859375 C 62.90813827514648 599.5174560546875 53.63630294799805 596.8461303710938 45.25530242919922 593.6602172851563 C 36.54855346679688 590.3504638671875 28.56021881103516 586.3928833007813 21.51213645935059 581.8973999023438 C 13.21413612365723 576.604736328125 5.986719608306885 570.8894653320313 0.03071972727775574 564.9102783203125 C -5.65969705581665 559.1978149414063 -10.38494682312012 553.0473022460938 -14.01369667053223 546.629638671875 C -17.45478057861328 540.5439453125 -20.03553009033203 533.99365234375 -21.68428039550781 527.16064453125 C -23.23169708251953 520.7478637695313 -24.01927947998047 513.8271484375 -24.02511405944824 506.5905456542969 C -24.03053092956543 499.8200378417969 -23.38694763183594 492.7645263671875 -22.05752944946289 485.0207214355469 C -20.86794662475586 478.0914611816406 -19.14911270141602 470.7486267089844 -16.80286407470703 462.5726928710938 C -12.43002986907959 447.3353881835938 -6.661280155181885 431.897216796875 -0.5537802577018738 415.5526123046875 C 10.5471363067627 385.8448791503906 22.02605247497559 355.1256103515625 25.23721885681152 324.2511291503906 C 28.87838554382324 289.2426147460938 21.02605247497559 259.1477966308594 1.231553077697754 232.2468719482422 C -4.352863788604736 224.6576995849609 -9.43578052520752 216.8731231689453 -13.87602996826172 209.1095428466797 C -18.12236404418945 201.6850433349609 -21.89386367797852 194.0822906494141 -25.08569717407227 186.5126190185547 C -28.12861442565918 179.2962036132813 -30.72511291503906 171.9192962646484 -32.80303192138672 164.5867919921875 C -34.77686309814453 157.6217956542969 -36.33444595336914 150.5144500732422 -37.43261337280273 143.4622955322266 C -41.23161315917969 119.066291809082 -39.78661346435547 94.21037292480469 -33.13777923583984 69.58495330810547 C -30.52519607543945 59.90862274169922 -27.09286308288574 50.24504089355469 -22.93619728088379 40.86245727539063 C -19.61069679260254 33.35612487792969 -15.81686401367188 26.01212310791016 -11.66011333465576 19.03445625305176 C -5.215291500091553 8.215970039367676 0.1215677484869957 1.63494861125946 1.062449097633362 0.5000401735305786 L 526 0.5000401735305786 L 526 517.5968017578125 C 523.7723388671875 518.4722290039063 509.9235229492188 523.8780517578125 488.2892150878906 531.5413818359375 C 466.5470581054688 539.2429809570313 432.2720642089844 550.8641357421875 392.4570617675781 562.491455078125 C 347.7100524902344 575.5591430664063 305.2294616699219 585.970947265625 266.1953125 593.4376831054688 C 243.022216796875 597.870361328125 220.8224639892578 601.30078125 200.2125549316406 603.6336059570313 C 177.5465545654297 606.19921875 156.24462890625 607.5000610351563 136.8983917236328 607.5000610351563 Z" stroke="none"/>
    <path d="M 1.2982177734375 0.99993896484375 C 0.04669189453125 2.5263671875 -5.082427978515625 8.9698486328125 -11.23062133789063 19.290283203125 C -15.37710571289063 26.25079345703125 -19.16168212890625 33.5767822265625 -22.4791259765625 41.06494140625 C -26.62545776367188 50.42413330078125 -30.04910278320313 60.06353759765625 -32.65512084960938 69.7152099609375 C -39.2855224609375 94.27264404296875 -40.7266845703125 119.0587768554688 -36.9385986328125 143.3853759765625 C -35.84353637695313 150.41748046875 -34.290283203125 157.5047912597656 -32.32196044921875 164.4504699707031 C -30.24960327148438 171.7632751464844 -27.65994262695313 179.1206970214844 -24.62503051757813 186.3182983398438 C -21.44094848632813 193.86962890625 -17.67843627929688 201.4541320800781 -13.4420166015625 208.8612976074219 C -9.011199951171875 216.6083679199219 -3.93878173828125 224.376708984375 1.63421630859375 231.9505310058594 C 21.50588989257813 258.9562072753906 29.38912963867188 289.1649475097656 25.73455810546875 324.3028869628906 C 22.51681518554688 355.2408752441406 11.02655029296875 385.9904479980469 -0.085357666015625 415.7276306152344 C -6.189361572265625 432.0628051757813 -11.95486450195313 447.4920349121094 -16.32220458984375 462.7106323242188 C -18.6634521484375 470.8688659667969 -20.37826538085938 478.1942138671875 -21.56478881835938 485.1052856445313 C -22.8892822265625 492.8207092285156 -23.530517578125 499.8484497070313 -23.52511596679688 506.5900268554688 C -23.519287109375 513.787353515625 -22.7364501953125 520.6688232421875 -21.19827270507813 527.0432739257813 C -19.56036376953125 533.8311767578125 -16.9967041015625 540.3381958007813 -13.57846069335938 546.3834228515625 C -9.971771240234375 552.7620239257813 -5.273773193359375 558.8766479492188 0.384979248046875 564.557373046875 C 6.31512451171875 570.5106201171875 13.5137939453125 576.2027587890625 21.78097534179688 581.4757690429688 C 28.80038452148438 585.9529418945313 36.758056640625 589.8951416015625 45.4329833984375 593.1926879882813 C 53.78973388671875 596.3694458007813 63.036376953125 599.0333862304688 72.91604614257813 601.1105346679688 C 82.40655517578125 603.1057739257813 92.734375 604.6129760742188 103.61279296875 605.5899658203125 C 114.0301513671875 606.5255126953125 125.2290649414063 606.9999389648438 136.8984680175781 606.9999389648438 C 156.2252197265625 606.9999389648438 177.5073089599609 605.7003173828125 200.1537170410156 603.1370239257813 C 220.7501373291016 600.8057861328125 242.9363098144531 597.3775634765625 266.0958862304688 592.947509765625 C 305.1132202148438 585.4843139648438 347.576904296875 575.076904296875 392.3073120117188 562.0142822265625 C 432.1109619140625 550.3905639648438 466.3768920898438 538.7726440429688 488.1133117675781 531.0732421875 C 508.8932495117188 523.7127075195313 522.4891357421875 518.4351806640625 525.5 517.2559204101563 L 525.5 0.99993896484375 L 1.2982177734375 0.99993896484375 M 0.82879638671875 -6.103515625e-05 L 526.5 -6.103515625e-05 L 526.5 517.9371948242188 C 526.5 517.9371948242188 299.3190002441406 608 136.8984375 608 C 90.96490478515625 608 50.2154541015625 600.7981567382813 21.24322509765625 582.31884765625 C -110.174560546875 498.4971313476563 92.6937255859375 357.3884582519531 0.82879638671875 232.543212890625 C -91.03604125976563 107.6978759765625 0.82879638671875 -6.103515625e-05 0.82879638671875 -6.103515625e-05 Z" stroke="none" fill="#707070"/>
  </g>
</svg>
