<svg xmlns="http://www.w3.org/2000/svg" width="17.138" height="17.138" viewBox="0 0 17.138 17.138">
  <path id="Icon_metro-blogger" data-name="Icon metro-blogger" d="M17.458,7.5H16.5a1.181,1.181,0,0,1-1.145-1.071A5.378,5.378,0,0,0,9.81,1.071H7A5.556,5.556,0,0,0,1.428,6.605v6.072A5.552,5.552,0,0,0,7,18.209h6a5.545,5.545,0,0,0,5.566-5.532V8.755A1.243,1.243,0,0,0,17.458,7.5ZM6.784,5.356H10A1.071,1.071,0,0,1,10,7.5H6.784a1.071,1.071,0,0,1,0-2.142Zm6.427,8.569H6.784a1.071,1.071,0,0,1,0-2.142h6.427a1.071,1.071,0,0,1,0,2.142Z" transform="translate(-1.428 -1.071)" opacity="0.8"/>
</svg>
